<svg xmlns="http://www.w3.org/2000/svg" viewBox="0 0 486.543 486.543">
  <path d="M476.283 185.189h-2.94l-172.135-84.711c.39-2.712.602-5.48.602-8.298 0-9.372-2.297-18.7-6.643-26.976a4.248 4.248 0 0 0-3.124-2.226 4.255 4.255 0 0 0-3.645 1.196L265.03 87.542l-39.299-3.747c3.155-6.826 10.058-11.429 17.864-11.429a4.25 4.25 0 0 0 4.25-4.25V4.25a4.25 4.25 0 0 0-4.25-4.25h-27.261a4.25 4.25 0 0 0-4.25 4.25v38.97c-16.476 10.66-26.611 29.146-26.611 48.83 0 2.723.242 5.35.534 7.549l-173.503 85.59H10.26c-5.028 0-9.118 4.09-9.118 9.118v283.119c0 5.028 4.09 9.118 9.118 9.118h466.023c5.028 0 9.118-4.09 9.118-9.118v-283.12c0-5.027-4.09-9.117-9.118-9.117zm-22.191 0h-39.673l-123.006-59.894a57.916 57.916 0 0 0 7.9-16.275l154.779 76.169zm-168.188-53.123l109.099 53.122H91.063l109.684-53.879c11.069 11.947 26.881 18.991 42.942 18.991 16.615 0 31.612-7.019 42.215-18.234zm4.169-57.544c2.151 5.614 3.238 11.53 3.238 17.657 0 27.361-22.26 49.621-49.622 49.621-12.874 0-25.573-5.316-34.919-14.432l21.304-10.465c4.129 2.271 8.788 3.46 13.615 3.46 15.358 0 27.886-12.347 28.179-27.635l18.205-18.206zM193.976 92.05c0-17.505 9.394-33.904 24.516-42.796a4.252 4.252 0 0 0 2.096-3.664V8.5h18.761v55.687c-10.928 1.664-19.999 9.648-22.938 20.415l-22.284 10.993a44.213 44.213 0 0 1-.151-3.545zm26.912-.179l42.124 4.017c-1.741 9.085-9.738 15.975-19.323 15.975-3.988 0-7.798-1.149-11.02-3.324a4.25 4.25 0 0 0-4.252-.292L71.784 185.189H31.719l189.169-93.318zm256.013 385.554a.618.618 0 0 1-.618.618H10.26a.618.618 0 0 1-.618-.618V194.306c0-.34.277-.618.618-.618h62.501l.014.001.018-.001H472.327l.026.001.021-.001h3.91c.341 0 .618.277.618.618v283.119z"/>
  <path d="M455.714 204.497H30.828c-4.699 0-8.521 3.823-8.521 8.521v245.694c0 4.699 3.823 8.522 8.521 8.522h424.886c4.699 0 8.522-3.823 8.522-8.522V213.019c0-4.699-3.823-8.522-8.522-8.522zm-147.99 59.183a4.25 4.25 0 0 0-4.25 4.25v190.797l-20.708-.001V213.01l20.708.001V245a4.25 4.25 0 0 0 8.5 0v-31.988l41.716.003v106.548a4.25 4.25 0 0 0 8.5 0V213.014l13.069.001V458.73l-63.285-.003V267.93a4.25 4.25 0 0 0-4.25-4.25zm-130.2 117.598a4.25 4.25 0 0 0-4.25 4.25v73.192l-41.084-.002v-87.336a4.25 4.25 0 0 0-8.5 0v87.336l-13.701-.001V251.534a4.25 4.25 0 0 0-8.5 0v207.183l-20.707-.001V212.999l20.707.002v26.909a4.25 4.25 0 0 0 8.5 0v-26.909l63.285.003v137.47a4.25 4.25 0 0 0 8.5 0V213.005l20.708.001v245.716l-20.708-.001v-73.192a4.25 4.25 0 0 0-4.25-4.251zm33.458-168.272l63.284.003v245.716l-63.284-.003V213.006zM30.807 458.713l.021-245.716 41.453.002v245.716l-41.474-.002zm424.916.021l-.009.001-42.748-.002v-46.07a4.25 4.25 0 0 0-8.5 0v46.069l-20.707-.001V213.015l20.707.001v160.073a4.25 4.25 0 0 0 8.5 0V213.017l42.771.002-.014 245.715z"/>
</svg>
