<svg xmlns="http://www.w3.org/2000/svg" class="svgicon" id="svg38" viewBox="0 0 60 60">
  <style>
    #svg38 path,#svg38 circle,#svg38 polygon,#svg38 rect{fill: rgb(237, 28, 36)}#svg38 defs&gt;path{fill: none}#svg38 path[fill=&quot;none&quot;],#svg38 circle[fill=&quot;none&quot;],#svg38 polygon[fill=&quot;none&quot;],#svg38 rect[fill=&quot;none&quot;]{fill: none}
  </style>
  <style>
    #svg38 .st0{fill:none;stroke:#ed1c24;stroke-width:1.5;stroke-linecap:round;stroke-linejoin:round;stroke-miterlimit:10}
  </style>
  <path class="st0" d="M33.57 46.272L10.441 8.747l-5.97 3.366a2.311 2.311 0 0 1-3.179-.936c-.625-1.156-.214-2.609.917-3.246l7.904-4.46a2.313 2.313 0 0 1 3.112.819l24.02 38.972M44.718 45.225l10.694-6.878a2.316 2.316 0 0 1 3.227.75c.69 1.117.36 2.594-.733 3.298l-11.54 7.418"/>
  <path class="st0" d="M29.738 31.033c-.707-1.152-.366-2.672.763-3.395l14.743-9.443a2.387 2.387 0 0 1 3.327.777l9.157 14.986c.708 1.153.367 2.674-.761 3.396l-12.249 7.869"/>
  <path class="st0" d="M21.252 17.214a1.707 1.707 0 0 1 .524-2.322L31.863 8.43a1.632 1.632 0 0 1 2.276.533l6.325 10.303c.484.791.251 1.83-.521 2.325l-10.089 6.46a1.63 1.63 0 0 1-2.275-.533"/>
  <ellipse class="st0" cx="39.498" cy="49.812" rx="6.868" ry="7.015"/>
  <ellipse class="st0" cx="39.5" cy="49.812" rx="2.448" ry="2.5"/>
</svg>
