<svg xmlns="http://www.w3.org/2000/svg" viewBox="0 0 206.816 206.816">
  <path d="M188.97 28.527H17.847C8.006 28.527 0 36.54 0 46.391v49.852c0 9.851 8.006 17.864 17.847 17.864H188.97c9.841 0 17.846-8.013 17.846-17.864V46.391c.001-9.851-8.005-17.864-17.846-17.864zm10.715 67.716c0 5.916-4.807 10.732-10.715 10.732H17.847c-5.908 0-10.715-4.816-10.715-10.732V46.391c0-5.916 4.807-10.732 10.715-10.732H188.97c5.908 0 10.715 4.816 10.715 10.732v49.852zM162.982 143.678a3.564 3.564 0 0 0-5.042 0l-6.087 6.087h-2.746a10.679 10.679 0 0 0-6.474-6.474v-2.746l6.087-6.087c1.393-1.393 1.393-3.649 0-5.042s-3.649-1.393-5.042 0l-4.61 4.61-4.611-4.611a3.564 3.564 0 0 0-5.042 0 3.564 3.564 0 0 0 0 5.042l6.087 6.087v2.746a10.679 10.679 0 0 0-6.474 6.474h-2.746l-6.087-6.087c-1.393-1.393-3.649-1.393-5.042 0s-1.393 3.649 0 5.042l4.61 4.61-4.611 4.611a3.564 3.564 0 0 0 2.521 6.086c.912 0 1.825-.348 2.521-1.045l6.087-6.087h2.747a10.679 10.679 0 0 0 6.474 6.474v2.747l-6.087 6.087c-1.393 1.393-1.393 3.649 0 5.042s3.649 1.393 5.042 0l4.61-4.611 4.611 4.611a3.555 3.555 0 0 0 2.521 1.044 3.564 3.564 0 0 0 2.521-6.087l-6.087-6.087v-2.746a10.679 10.679 0 0 0 6.474-6.474h2.746l6.087 6.087c.697.696 1.609 1.045 2.521 1.045s1.825-.348 2.521-1.045a3.564 3.564 0 0 0 0-5.042l-4.61-4.61 4.611-4.611a3.56 3.56 0 0 0-.001-5.04zm-23.915 13.218a3.57 3.57 0 0 1-3.566-3.566c0-1.968 1.6-3.566 3.566-3.566s3.566 1.598 3.566 3.566a3.57 3.57 0 0 1-3.566 3.566zM88.1 143.678a3.564 3.564 0 0 0-5.042 0l-6.087 6.087h-2.746a10.679 10.679 0 0 0-6.474-6.474v-2.746l6.087-6.087c1.393-1.393 1.393-3.649 0-5.042s-3.649-1.393-5.042 0l-4.61 4.61-4.611-4.611c-1.393-1.393-3.649-1.393-5.042 0s-1.393 3.649 0 5.042l6.087 6.087v2.746a10.679 10.679 0 0 0-6.474 6.474H51.4l-6.087-6.087c-1.393-1.393-3.649-1.393-5.042 0s-1.393 3.649 0 5.042l4.61 4.61-4.611 4.611a3.564 3.564 0 0 0 2.521 6.086c.912 0 1.825-.348 2.521-1.045l6.087-6.087h2.747a10.679 10.679 0 0 0 6.474 6.474v2.747l-6.087 6.087c-1.393 1.393-1.393 3.649 0 5.042s3.649 1.393 5.042 0l4.61-4.611 4.611 4.611c.696.696 1.609 1.044 2.521 1.044s1.825-.348 2.521-1.045a3.564 3.564 0 0 0 0-5.042l-6.087-6.087v-2.746a10.679 10.679 0 0 0 6.474-6.474h2.746l6.087 6.087a3.558 3.558 0 0 0 2.521 1.045 3.564 3.564 0 0 0 2.521-6.087l-4.61-4.61 4.611-4.611a3.56 3.56 0 0 0-.001-5.04zm-23.915 13.218a3.57 3.57 0 0 1-3.566-3.566c0-1.968 1.6-3.566 3.566-3.566s3.566 1.598 3.566 3.566a3.57 3.57 0 0 1-3.566 3.566z"/>
  <path d="M35.658 89.146h131.986v7.132H35.658zM21.395 78.449h164.027v7.132H21.395z"/>
</svg>
