<svg xmlns="http://www.w3.org/2000/svg" class="svgicon" id="svg64" viewBox="0 0 60 60">
  <style>
    #svg64 path,#svg64 circle,#svg64 polygon,#svg64 rect{fill: black}#svg64 defs&gt;path{fill: none}#svg64 path[fill=&quot;none&quot;],#svg64 circle[fill=&quot;none&quot;],#svg64 polygon[fill=&quot;none&quot;],#svg64 rect[fill=&quot;none&quot;]{fill: none}
  </style>
  <style>
    #svg64 .st0{fill:black}
  </style>
  <path class="st0" d="M49.76 59.75H4.902a3.786 3.786 0 0 1-3.782-3.783V4.032A3.786 3.786 0 0 1 4.902.25H49.76a3.786 3.786 0 0 1 3.783 3.782V27a.75.75 0 0 1-1.5 0V4.032A2.285 2.285 0 0 0 49.76 1.75H4.902A2.284 2.284 0 0 0 2.62 4.032v51.936a2.285 2.285 0 0 0 2.282 2.283H49.76a2.285 2.285 0 0 0 2.283-2.283v-20.78a.75.75 0 0 1 1.5 0v20.78a3.787 3.787 0 0 1-3.783 3.782z"/>
  <path class="st0" d="M46.102 23.563H8.312a.75.75 0 0 1 0-1.5h37.789a.75.75 0 0 1 .001 1.5zM46.102 29.499H8.312a.75.75 0 0 1 0-1.5h37.789a.75.75 0 0 1 .001 1.5zM37 35.434H17.414a.75.75 0 0 1 0-1.5H37a.75.75 0 0 1 0 1.5zM48.251 17.833a.745.745 0 0 1-.269-.05 140.268 140.268 0 0 0-9.557-3.198.75.75 0 0 1-.54-.72v-1.687a.75.75 0 0 1 1.5 0v1.126c2.643.787 5.09 1.62 6.784 2.22l-.732-.995a.747.747 0 0 1 .215-1.086l.903-.549c-.972-.363-2.387-.874-4.064-1.426a.751.751 0 0 1 .468-1.425c3.258 1.072 5.549 1.995 5.572 2.004a.75.75 0 0 1 .108 1.337l-1.507.916 1.723 2.337a.75.75 0 1 1-.604 1.196zM6.394 17.833a.751.751 0 0 1-.604-1.194L7.513 14.3l-1.508-.916a.748.748 0 0 1 .119-1.341c.023-.009 2.38-.917 5.587-1.973a.751.751 0 0 1 .468 1.425 137.56 137.56 0 0 0-4.071 1.411l.885.537a.747.747 0 0 1 .215 1.086l-.732.994c1.694-.601 4.14-1.433 6.781-2.22v-1.139a.75.75 0 0 1 1.5 0v1.699a.75.75 0 0 1-.54.72c-5.042 1.474-9.509 3.181-9.554 3.198a.734.734 0 0 1-.269.052z"/>
  <path class="st0" d="M11.986 13.777a.752.752 0 0 1-.75-.75v-4.34c0-.342.232-.642.563-.727.35-.089 8.634-2.192 15.544-2.192 6.906 0 15.112 2.104 15.458 2.193a.75.75 0 0 1 .562.726v4.34a.75.75 0 0 1-.936.727c-.084-.021-8.435-2.147-15.084-2.147-6.654 0-15.088 2.126-15.173 2.148a.76.76 0 0 1-.184.022zm.75-4.501v2.799c2.416-.562 9.013-1.968 14.607-1.968 5.585 0 12.118 1.402 14.521 1.966V9.275c-1.98-.475-8.818-2.007-14.521-2.007-5.713 0-12.613 1.534-14.607 2.008zM44.399 51.221h-20.99a.75.75 0 0 1 0-1.5h20.99a.75.75 0 0 1 0 1.5zM25.005 49.208c-.307 0-.613-.078-.886-.226-.953-.521-1.287-1.743-1.322-1.881a.75.75 0 0 1 1.453-.37c.059.224.286.77.586.933a.37.37 0 0 0 .299.022c.483-.154.608-.557.758-1.202.125-.551.297-1.311 1.117-1.397.783-.081 1.309.75 1.812 1.686.153.28.346.633.441.701.241.122 1.02-.143 1.271-.572.219-.363.487-.575.804-.639.596-.124 1.191.312 1.714.693.21.153.391.287.568.386.339.189.8.174 1.242.13.403-.051.78.259.821.671s-.259.78-.671.821c-.653.066-1.42.081-2.124-.313a7.19 7.19 0 0 1-.687-.458c-.136-.099-.336-.245-.498-.346-.729.969-2.188 1.432-3.118.964-.493-.244-.753-.721-1.082-1.324a13.67 13.67 0 0 0-.217-.388c-.175.678-.538 1.647-1.698 2.017a1.893 1.893 0 0 1-.583.092zM12.395 52.754a.744.744 0 0 1-.384-.106l-1.216-.724H9.379a.75.75 0 0 1-.65-.376l-.749-1.302-1.292-.77a.75.75 0 0 1-.366-.654l.018-1.415-.706-1.225a.75.75 0 0 1 0-.75l.752-1.303.021-1.504a.752.752 0 0 1 .384-.645l1.236-.691.703-1.222a.752.752 0 0 1 .65-.376h1.507l1.313-.735a.752.752 0 0 1 .751.011l1.213.724h1.415a.75.75 0 0 1 .65.376l.748 1.302 1.294.77a.75.75 0 0 1 .366.655l-.021 1.413.708 1.224a.75.75 0 0 1 0 .75l-.751 1.302-.023 1.507a.751.751 0 0 1-.383.643l-1.232.691-.707 1.224a.75.75 0 0 1-.649.375h-1.507l-1.311.734a.737.737 0 0 1-.366.097zm-2.583-2.33h1.189c.135 0 .268.037.384.106l1.021.608 1.104-.618a.744.744 0 0 1 .366-.096h1.27l.594-1.027a.748.748 0 0 1 .282-.279l1.035-.58.02-1.27a.74.74 0 0 1 .101-.363l.632-1.095-.595-1.028a.758.758 0 0 1-.101-.386l.018-1.187-1.09-.648a.762.762 0 0 1-.267-.271l-.63-1.096h-1.188a.753.753 0 0 1-.385-.106l-1.019-.608-1.105.619a.756.756 0 0 1-.366.095h-1.27l-.59 1.025a.758.758 0 0 1-.284.281l-1.039.58-.018 1.267a.745.745 0 0 1-.101.365l-.633 1.097.593 1.028c.067.117.103.25.101.384l-.015 1.188 1.089.648c.11.066.202.159.267.271l.63 1.096z"/>
  <path class="st0" d="M36.222 48.768c-.537 0-1.015-.448-1.065-.999a.74.74 0 0 1 .028-.281l2.775-9.37c.094-.327.375-.621.548-.776l.022-.021c.069-.061.115-.095.117-.097l.006.009c.399-.253 1.652-.867 6.265-3.109a.75.75 0 0 1 .656 1.349c-2.176 1.057-5.712 2.786-6.102 3.003l-.015.01.002-.001c.01 0-.041.062-.077.109l-2.502 8.445 8.442-2.503c.041-.031.095-.078.132-.113.278-.547 1.883-4.017 2.873-6.172a.75.75 0 0 1 1.363.626c-2.217 4.824-2.778 6.039-3.017 6.412l.008.005c-.004.006-.407.529-.88.664l-9.368 2.777a.656.656 0 0 1-.211.033z"/>
  <path class="st0" d="M49.01 39.315a.744.744 0 0 1-.53-.22l-1.821-1.822a.748.748 0 0 1 0-1.06.75.75 0 0 1 1.061 0l1.821 1.822a.748.748 0 0 1-.531 1.28z"/>
  <path class="st0" d="M49.23 39.405c-.271 0-.541-.102-.748-.306l-3.641-3.641a1.06 1.06 0 0 1 0-1.504L57.96 20.835a.75.75 0 1 1 1.061 1.061l-12.81 12.811 3.02 3.02 8.369-8.369a.75.75 0 1 1 1.061 1.061l-8.679 8.678c-.208.205-.48.308-.752.308zM36 48.688a.748.748 0 0 1-.532-1.278l7.188-7.25a.75.75 0 1 1 1.065 1.056l-7.188 7.25a.753.753 0 0 1-.533.222z"/>
</svg>
