<svg xmlns="http://www.w3.org/2000/svg" viewBox="0 0 491.826 491.826">
  <path d="M113.322 361.548c-13.421 0-24.338 10.918-24.338 24.339s10.918 24.34 24.338 24.34c13.421 0 24.339-10.919 24.339-24.34s-10.918-24.339-24.339-24.339zm0 40.179c-8.733 0-15.838-7.105-15.838-15.84 0-8.733 7.105-15.839 15.838-15.839 8.734 0 15.839 7.105 15.839 15.839.001 8.735-7.105 15.84-15.839 15.84zM378.504 361.548c-13.421 0-24.34 10.919-24.34 24.34s10.919 24.34 24.34 24.34 24.34-10.919 24.34-24.34-10.919-24.34-24.34-24.34zm0 40.179c-8.734 0-15.84-7.105-15.84-15.84s7.106-15.84 15.84-15.84 15.84 7.105 15.84 15.84-7.106 15.84-15.84 15.84z"/>
  <path d="M469.821 290.827l-447.816.001C9.872 290.828 0 300.699 0 312.833v25.645c0 12.134 9.872 22.005 22.005 22.005h45.834a51.783 51.783 0 0 0-6.635 25.404c0 28.738 23.38 52.119 52.118 52.119 28.738 0 52.118-23.381 52.118-52.119a51.777 51.777 0 0 0-6.635-25.404h174.216a51.783 51.783 0 0 0-6.635 25.404c0 28.738 23.38 52.119 52.118 52.119 28.737 0 52.116-23.381 52.116-52.119a51.776 51.776 0 0 0-6.634-25.404h45.835c12.133 0 22.005-9.871 22.005-22.005v-25.646c0-12.134-9.872-22.005-22.005-22.005zm-356.499 138.68c-24.051 0-43.618-19.567-43.618-43.619 0-24.051 19.567-43.618 43.618-43.618 24.051 0 43.618 19.567 43.618 43.618 0 24.051-19.567 43.619-43.618 43.619zm265.182 0c-24.051 0-43.618-19.567-43.618-43.619 0-24.051 19.567-43.618 43.618-43.618 24.05 0 43.616 19.567 43.616 43.618.001 24.051-19.566 43.619-43.616 43.619zm91.317-77.524h-51.784c-9.565-11.138-23.734-18.214-39.532-18.214-15.799 0-29.968 7.076-39.534 18.214H152.855c-9.566-11.138-23.734-18.214-39.533-18.214s-29.968 7.076-39.533 18.214H22.005c-7.447 0-13.505-6.059-13.505-13.505v-21.395h147.642a4.25 4.25 0 1 0 0-8.5H9.196c1.786-5.368 6.848-9.255 12.809-9.255l447.816-.001c7.447 0 13.505 6.059 13.505 13.505v14.614l-61.848.001a4.25 4.25 0 0 0 0 8.5l61.848-.001v2.532c0 7.446-6.058 13.505-13.505 13.505zM280.843 258.452h126.113c5.044 0 9.148-4.104 9.148-9.148V123.19c0-5.044-4.103-9.147-9.148-9.147H280.843c-5.044 0-9.148 4.104-9.148 9.147v126.114c0 5.044 4.104 9.148 9.148 9.148zm-.648-9.148v-97.747l25.783 25.771v72.623h-25.136a.647.647 0 0 1-.647-.647zm98.439.648h-30.179v-30.166l30.179 30.166zm-38.679 0h-25.477v-64.127l25.477 25.465v38.662zm67.648-126.762v99.021l-25.17-25.159v-74.509h24.522c.358 0 .648.29.648.647zm-99.712-.647h32.065v32.05l-32.065-32.05zm40.564 0h25.478v66.013l-25.478-25.467v-40.546zm-67.612 0h15.025l111.736 111.686v15.075c0 .357-.29.647-.648.647h-16.298L280.195 139.54v-16.35c0-.357.291-.647.648-.647z"/>
  <path d="M264.478 276.087H423.32c5.745 0 10.419-4.674 10.419-10.419V106.825c0-5.744-4.674-10.417-10.419-10.417H264.478c-5.745 0-10.419 4.673-10.419 10.417v158.843c0 5.745 4.674 10.419 10.419 10.419zm-1.919-169.262a1.92 1.92 0 0 1 1.919-1.917H423.32a1.92 1.92 0 0 1 1.919 1.917v158.843a1.921 1.921 0 0 1-1.919 1.919H264.478a1.92 1.92 0 0 1-1.919-1.919V106.825z"/>
  <path d="M396.782 246.872a4.238 4.238 0 0 0 3.004 1.244 4.251 4.251 0 0 0 3.005-7.256l-41.033-41.015a4.25 4.25 0 0 0-6.009 6.012l41.033 41.015zM50.536 254.064h157.489c5.716 0 10.366-4.65 10.366-10.366V86.208c0-5.716-4.65-10.365-10.366-10.365H50.536c-5.716 0-10.366 4.649-10.366 10.365v157.49c0 5.716 4.65 10.366 10.366 10.366zm117.308-94.546v86.046h-33.932v-52.13l33.932-33.916zm-42.432 86.046H81.759l43.653-43.634v43.634zm82.613 0h-31.681v-94.542l33.547-33.532v126.208a1.868 1.868 0 0 1-1.866 1.866zm1.866-159.356v19.264L69.736 245.564h-19.2a1.868 1.868 0 0 1-1.866-1.866v-20.855l138.563-138.5h20.793a1.866 1.866 0 0 1 1.865 1.865zm-84.479 47.909l-33.93 33.914-.001-83.688h33.93v49.774zm8.5-49.775h41.297l-41.297 41.278V84.342zm-83.376 0h32.446l.001 92.185-34.313 34.297V86.208c0-1.029.837-1.866 1.866-1.866z"/>
  <path d="M30.1 276.087h198.361c6.591 0 11.954-5.361 11.954-11.952V65.772c0-6.591-5.363-11.953-11.954-11.953H30.1c-6.591 0-11.954 5.362-11.954 11.953v198.362c0 6.591 5.363 11.953 11.954 11.953zM26.646 65.772a3.457 3.457 0 0 1 3.454-3.453h198.361a3.457 3.457 0 0 1 3.454 3.453v198.362a3.457 3.457 0 0 1-3.454 3.452H30.1a3.457 3.457 0 0 1-3.454-3.452V65.772z"/>
  <path d="M144.826 141.213a4.25 4.25 0 0 0 6.009 6.012l51.241-51.22a4.25 4.25 0 0 0-6.009-6.012l-51.241 51.22z"/>
</svg>
