<svg xmlns="http://www.w3.org/2000/svg" viewBox="0 0 487.214 487.214">
  <path d="M351.427 390.599c-9.791 0-17.756 7.967-17.756 17.759 0 9.791 7.965 17.757 17.756 17.757 9.792 0 17.758-7.966 17.758-17.757 0-9.792-7.966-17.759-17.758-17.759zm0 27.016c-5.103 0-9.256-4.153-9.256-9.257 0-5.105 4.152-9.259 9.256-9.259s9.258 4.153 9.258 9.259c0 5.104-4.153 9.257-9.258 9.257zM436.261 390.599c-9.792 0-17.758 7.967-17.758 17.759 0 9.791 7.966 17.757 17.758 17.757 9.791 0 17.756-7.966 17.756-17.757 0-9.792-7.965-17.759-17.756-17.759zm0 27.016c-5.105 0-9.258-4.153-9.258-9.257 0-5.105 4.153-9.259 9.258-9.259 5.103 0 9.256 4.153 9.256 9.259 0 5.104-4.152 9.257-9.256 9.257zM53.786 390.599c-9.791 0-17.756 7.967-17.756 17.759 0 9.791 7.965 17.757 17.756 17.757 9.792 0 17.759-7.966 17.759-17.757-.001-9.792-7.967-17.759-17.759-17.759zm0 27.016c-5.104 0-9.256-4.153-9.256-9.257 0-5.105 4.152-9.259 9.256-9.259 5.105 0 9.259 4.153 9.259 9.259-.001 5.104-4.154 9.257-9.259 9.257zM138.623 390.599c-9.792 0-17.757 7.967-17.757 17.759 0 9.791 7.966 17.757 17.757 17.757s17.757-7.966 17.757-17.757c0-9.792-7.966-17.759-17.757-17.759zm0 27.016c-5.105 0-9.257-4.153-9.257-9.257 0-5.105 4.153-9.259 9.257-9.259s9.257 4.153 9.257 9.259c0 5.104-4.153 9.257-9.257 9.257zM109.658 330.632H360.55c36.97 0 68.852-11.952 92.199-34.564 22.225-21.524 34.465-51.1 34.465-83.277 0-33.946-8.866-62.623-25.64-82.93-19.134-23.165-47.401-34.911-84.014-34.911h-86.787V70.294h5.102c5.681 0 10.303-4.622 10.303-10.304v-7.265c0-5.681-4.622-10.303-10.303-10.303H194.173c-5.682 0-10.304 4.622-10.304 10.303v7.265c0 5.682 4.622 10.304 10.304 10.304h5.101V94.95h-89.616c-36.613 0-64.88 11.746-84.016 34.911C8.867 150.169 0 178.845 0 212.791c0 33.946 8.867 62.623 25.642 82.931 19.135 23.164 47.402 34.91 84.016 34.91zM192.369 59.99v-7.265c0-.994.809-1.803 1.804-1.803h101.702c.994 0 1.803.809 1.803 1.803v7.265c0 .995-.809 1.804-1.803 1.804H194.173a1.806 1.806 0 0 1-1.804-1.804zm15.404 10.304h74.5V94.95h-74.5V70.294zm-98.115 33.156h14.354v113.476a4.25 4.25 0 0 0 8.5 0V103.45h205.5v113.476a4.25 4.25 0 1 0 8.5 0V103.45h23.5v37.908a4.25 4.25 0 1 0 8.5 0v-37.895c90.405.535 100.203 76.568 100.203 109.328 0 51.688-33.079 91.809-82.441 104.835v-81.664a4.25 4.25 0 1 0-8.5 0v83.607c-8.662 1.681-17.762 2.563-27.223 2.563H109.658c-7.306 0-14.085-.495-20.384-1.413v-37.861a4.25 4.25 0 0 0-8.5 0v36.296C16.192 304.771 8.5 241.808 8.5 212.791c0-32.876 9.857-109.341 101.158-109.341z"/>
  <path d="M128.261 276.608a4.25 4.25 0 0 0 4.25-4.25v-40a4.25 4.25 0 0 0-8.5 0v40a4.25 4.25 0 0 0 4.25 4.25zM471.023 319.77h-13c-5.101 0-9.25 4.149-9.25 9.25v9.419h-407.5v-9.419c0-5.101-4.149-9.25-9.25-9.25h-13c-5.101 0-9.25 4.149-9.25 9.25v41.007c0 5.101 4.149 9.25 9.25 9.25h12.841c-8.809 6.657-14.513 17.214-14.513 29.081 0 20.089 16.344 36.434 36.434 36.434 20.091 0 36.436-16.344 36.436-36.434 0-11.867-5.705-22.424-14.514-29.081h40.995c-8.809 6.657-14.513 17.214-14.513 29.081 0 20.089 16.344 36.434 36.434 36.434 20.09 0 36.434-16.344 36.434-36.434 0-11.867-5.705-22.424-14.513-29.081h168.961c-8.809 6.657-14.514 17.214-14.514 29.081 0 20.089 16.345 36.434 36.435 36.434 20.09 0 36.434-16.344 36.434-36.434 0-11.867-5.705-22.424-14.513-29.081h40.992c-8.808 6.657-14.513 17.214-14.513 29.081 0 20.089 16.344 36.434 36.434 36.434 20.09 0 36.434-16.344 36.434-36.434 0-11.867-5.705-22.424-14.513-29.081h12.841c5.101 0 9.25-4.149 9.25-9.25V329.02c.001-5.1-4.148-9.25-9.249-9.25zM81.721 408.358c0 15.403-12.532 27.934-27.936 27.934-15.403 0-27.934-12.531-27.934-27.934 0-15.404 12.531-27.936 27.934-27.936 15.404.001 27.936 12.532 27.936 27.936zm84.836 0c0 15.403-12.531 27.934-27.934 27.934s-27.934-12.531-27.934-27.934c0-15.404 12.531-27.936 27.934-27.936s27.934 12.532 27.934 27.936zm212.804 0c0 15.403-12.531 27.934-27.934 27.934s-27.935-12.531-27.935-27.934c0-15.404 12.532-27.936 27.935-27.936 15.403.001 27.934 12.532 27.934 27.936zm84.834 0c0 15.403-12.531 27.934-27.934 27.934-15.402 0-27.934-12.531-27.934-27.934 0-15.404 12.531-27.936 27.934-27.936 15.403.001 27.934 12.532 27.934 27.936zm7.578-38.331a.75.75 0 0 1-.75.75h-452a.75.75 0 0 1-.75-.75V329.02a.75.75 0 0 1 .75-.75h13a.75.75 0 0 1 .75.75v13.669a4.25 4.25 0 0 0 4.25 4.25h416a4.25 4.25 0 0 0 4.25-4.25V329.02a.75.75 0 0 1 .75-.75h13a.75.75 0 0 1 .75.75v41.007z"/>
</svg>
